<?xml version="1.0" standalone="no"?>
<!DOCTYPE svg PUBLIC "-//W3C//DTD SVG 20010904//EN"
 "http://www.w3.org/TR/2001/REC-SVG-20010904/DTD/svg10.dtd">
<svg version="1.0" xmlns="http://www.w3.org/2000/svg"
 width="512.000000pt" height="512.000000pt" viewBox="0 0 512.000000 512.000000"
 preserveAspectRatio="xMidYMid meet">
<metadata>
Created by potrace 1.11, written by Peter Selinger 2001-2013
</metadata>
<g transform="translate(0.000000,512.000000) scale(0.100000,-0.100000)"
fill="#000000" stroke="none">
<path d="M1637 4544 c-1 -1 -33 -4 -72 -8 -343 -30 -609 -304 -775 -797 -36
-107 -92 -320 -106 -399 -3 -14 -9 -47 -14 -75 -16 -84 -19 -105 -39 -255 -11
-80 -23 -181 -26 -225 -4 -44 -8 -96 -10 -115 -27 -272 -27 -1216 0 -1500 2
-19 6 -75 9 -125 9 -119 17 -214 21 -245 2 -14 7 -61 10 -105 7 -96 15 -109
16 -29 1 32 3 68 4 79 1 11 6 49 10 85 13 119 20 167 37 240 5 25 12 56 14 70
3 14 12 50 21 80 121 430 319 816 633 1235 249 332 579 675 955 995 28 23 61
52 75 64 124 105 399 310 580 431 82 55 146 106 148 116 9 50 -88 173 -187
237 -122 78 -348 158 -526 186 -16 2 -50 8 -75 11 -25 4 -52 9 -60 10 -8 1
-49 6 -90 10 -41 4 -84 9 -94 11 -26 5 -454 21 -459 18z"/>
<path d="M4469 4454 c-1 -111 -17 -245 -45 -384 -45 -220 -111 -429 -201 -630
-29 -65 -120 -245 -150 -295 -16 -27 -32 -57 -36 -65 -13 -28 -142 -226 -210
-323 -206 -290 -517 -634 -823 -912 -54 -49 -101 -93 -104 -96 -22 -25 -306
-254 -435 -351 -88 -66 -167 -125 -176 -132 -8 -7 -78 -54 -155 -105 -83 -56
-140 -101 -142 -112 -8 -43 61 -142 143 -205 134 -105 410 -202 655 -230 30
-3 58 -8 62 -10 3 -2 42 -7 85 -10 43 -3 89 -8 103 -10 14 -3 133 -8 265 -11
203 -5 254 -3 324 11 204 42 375 168 513 380 55 84 130 242 173 361 39 106
110 369 120 445 4 24 8 47 10 50 2 3 6 23 9 45 4 22 11 65 16 95 5 30 12 75
15 100 3 25 7 61 10 80 12 95 21 180 30 295 28 329 27 1152 0 1500 -2 28 -7
86 -10 130 -9 133 -15 208 -20 250 -2 22 -7 72 -11 110 -7 84 -14 97 -15 29z"/>
</g>
</svg>
